<?xml version="1.0" standalone="no"?><!DOCTYPE svg PUBLIC "-//W3C//DTD SVG 1.1//EN" "http://www.w3.org/Graphics/SVG/1.1/DTD/svg11.dtd"><svg class="icon" width="200px" height="200.00px" viewBox="0 0 1024 1024" version="1.1" xmlns="http://www.w3.org/2000/svg"><path fill="#1afa29" d="M682.67008 238.92992H614.4c-37.5296 0-68.27008 30.74048-68.27008 68.27008v122.63424L375.10144 258.89792a68.17792 68.17792 0 0 0-48.27136-19.968 53.68832 53.68832 0 0 0-53.76 53.73952v438.70208a53.72928 53.72928 0 0 0 53.76 53.69856h0.44032a67.8912 67.8912 0 0 0 48.26112-19.99872l170.5984-170.4448V716.8c0 37.5296 30.74048 68.27008 68.27008 68.27008h68.27008c37.5296 0 68.25984-30.74048 68.25984-68.27008V307.2c0-37.5296-30.73024-68.27008-68.25984-68.27008zM341.32992 702.73024V321.66912l190.69952 190.55616-190.69952 190.50496zM682.67008 716.8H614.4V307.2h68.27008v409.6z" /></svg>