<?xml version="1.0" standalone="no"?><!DOCTYPE svg PUBLIC "-//W3C//DTD SVG 1.1//EN" "http://www.w3.org/Graphics/SVG/1.1/DTD/svg11.dtd"><svg class="icon" width="200px" height="200.00px" viewBox="0 0 1024 1024" version="1.1" xmlns="http://www.w3.org/2000/svg"><path fill="#1afa29" d="M409.6 238.92992h-68.27008c-37.5296 0-68.25984 30.74048-68.25984 68.27008v409.6c0 37.5296 30.73024 68.27008 68.25984 68.27008H409.6c37.5296 0 68.27008-30.74048 68.27008-68.27008V307.2c0-37.5296-30.74048-68.27008-68.27008-68.27008zM409.6 716.8h-68.27008V307.2H409.6v409.6zM682.67008 238.92992H614.4c-37.5296 0-68.27008 30.74048-68.27008 68.27008v409.6c0 37.5296 30.74048 68.27008 68.27008 68.27008h68.27008c37.5296 0 68.25984-30.74048 68.25984-68.27008V307.2c0-37.5296-30.73024-68.27008-68.25984-68.27008z m0 477.87008H614.4V307.2h68.27008v409.6z" /></svg>