<?xml version="1.0" standalone="no"?><!DOCTYPE svg PUBLIC "-//W3C//DTD SVG 1.1//EN" "http://www.w3.org/Graphics/SVG/1.1/DTD/svg11.dtd"><svg class="icon" width="200px" height="200.00px" viewBox="0 0 1024 1024" version="1.1" xmlns="http://www.w3.org/2000/svg"><path fill="#1afa29" d="M112 480A48 48 0 0 1 160 528c0 114.56 96.096 208 215.328 208H704v-32a32 32 0 0 1 4.16-15.744l2.24-3.456a32 32 0 0 1 44.8-6.4l106.656 80a32 32 0 0 1 0 51.2L755.2 889.6A32 32 0 0 1 704 864v-32H375.328C203.68 832 64 696.192 64 528A48 48 0 0 1 112 480z m208-160a32 32 0 0 1-51.2 25.6L162.144 265.6a32 32 0 0 1 0-51.2L268.8 134.4A32 32 0 0 1 320 160v32h328.256C820.096 192 960 327.776 960 496a48 48 0 0 1-96 0c0-114.56-96.288-208-215.744-208H320v32z"  /></svg>